<svg id="Layer_1" data-name="Layer 1" xmlns="http://www.w3.org/2000/svg" viewBox="0 0 359.07 370.59"><defs><style>.cls-1{fill:#ec1c24;}</style></defs><path class="cls-1" d="M198.84,127.49s-17.29,3.86-16.81-5c.24-3,2-4.11,3.7-3.78.08-1.61-3.38-6.28,4.18-8.13,2.66-3.62,4.83-6.51,5.55-8.77s2.82-5.31,9.65-3.86,14.24,8,15.29,10c4,.08,8.2.72,6.67,1.53s-2.41,2.33-2.09,2.57,2.5,1.45-4.5,1.61c.24,1.45,1.56,1.85,2.79,2.57s-.34,1.61,0,1.93,1,3.7-2.55,2.34-3.78-2.58-4.74-2.42-3.55.57-3.14,1.53,3.86,3.22-.57,4c-.88.81,1.37,2.09-.32,2.74s-9.09,6.43-12.63,7.88c-3.46,0-4.58-1-4.26-2.41s1.85-2.5,4.1-2.74C199.16,128.14,199.4,127.38,198.84,127.49Z" transform="translate(-42.95 -27.74)"/><path class="cls-1" d="M197.31,145.91c-1.69.08-6.59-3.29-4-5.14s14.16-9.34,16.73-10.06,5.95,2.66,2.82,5.23S197.31,145.91,197.31,145.91Z" transform="translate(-42.95 -27.74)"/><path class="cls-1" d="M215.25,137.55c-.3-1.79,1.77-9.25,1.93-10.7s5.87-2.09,4.51,4.18S215.57,139.48,215.25,137.55Z" transform="translate(-42.95 -27.74)"/><path class="cls-1" d="M223.27,124.12s32.15-1.43,34.81,0,13.67,18.57,11,33.67-7.35,19-28.16,21.42c-.41-4.9-1.11-17.53-3.15-21s-9-11.36-12.22-11.25c0,3.54-.64,14-.64,14s-10.29.75-11.68-1.39c-.21-4,0-15.76,0-15.76s9.54-8.36,10-10.29c1.55.86,1.77,5.79,13.34,4.66C236.4,137.14,222.9,138.53,223.27,124.12Z" transform="translate(-42.95 -27.74)"/><path class="cls-1" d="M211,138.26s-10.18,8.63-12.22,10.24c-1.07,2.79-2.25,11.47,11,11.58C210.68,154.72,211,138.26,211,138.26Z" transform="translate(-42.95 -27.74)"/><path class="cls-1" d="M186.57,151.35c-3.11-.07-5.79-.81-5.47-3.39s4.72-5.25,7.61-4.61,7.61,1.93,7.61,13c2,2.36,8.46,6.75,16.29,7.18s12.54-.53,12.54,1.82v15s-9.35-.32-32.59-16.61c-1.92-2.58-3.21-4.18-3-8C189.35,153.21,187.64,151.37,186.57,151.35Z" transform="translate(-42.95 -27.74)"/><path class="cls-1" d="M179.55,153.1c-3.88-.16-15.12,9.34-6.8,13.25a40.25,40.25,0,0,0,4.42-4.56s-2,5.41,2.38,6.77,2.71-2.72,5.09-2.55c1.36,2.21,1.7,3.57,3.91,3.57,2.21-.34,2.89-6.63,0-10.36S183.79,153.27,179.55,153.1Z" transform="translate(-42.95 -27.74)"/><path class="cls-1" d="M227.4,154.31v29.62s9.88-3.05,10.84-5.54C237.86,173.23,236.24,154.12,227.4,154.31Z" transform="translate(-42.95 -27.74)"/><path class="cls-1" d="M203.74,173.88s11.43,7.76,18.87,10.82c-1,1.32-6,7.66-7.66,7.17S204.39,179.35,203.74,173.88Z" transform="translate(-42.95 -27.74)"/><polygon class="cls-1" points="119.84 163.1 91 163.1 89.98 157.39 119.84 157.39 119.84 163.1"/><polygon class="cls-1" points="221.46 162.69 322.46 162.69 322.46 154.33 210.44 154.33 221.46 162.69"/><path class="cls-1" d="M240.75,181.52c1.2-1.24,8.77,5,6.6,6.14s-22.75,9.79-24.74,9.11-1.34-5.92.66-7S237.11,185.27,240.75,181.52Z" transform="translate(-42.95 -27.74)"/><path class="cls-1" d="M217.88,195.51c-2.47-1.26-15.72,11.61-9.91,12.52s19.81,3.76,23.57,5.35c3.29-1.48,6.37-4.21,5.8-5.8,2.28.11,6.15,3.64,9.1,2.27s19.35-13.09,20.37-15c-3.3-2.85-10.47-7-13.42-6.85S228.58,201,217.88,195.51Z" transform="translate(-42.95 -27.74)"/><path class="cls-1" d="M210.94,211.78c1.48.07,18.21,6.38,22.42,5.58s5-4.89,7.39-4.67,3.53,2.4,7.51-.11a80.71,80.71,0,0,0,12.29-10.24c.23,2.62,0,9.78-15.47,16.73S193.87,236.25,193,241.14c1.36.57,5.91-.91,8.87-2.5,1.94,1.48,5.47,6.26,4.56,14s-6.83,21.05-6.83,24.81-.34,20.25-.12,22,3.08,11.15-1.48,10.47-7.28-.8-9.1-.46-5.46,3.3-8.65,2.85-8.65-2-8.42-3.64,3.76-1.6,6.83-2.74,5.12-4.55,11-6.71c-.23-4-2-32.64-2-38.76s-2-18.57.61-23.87S204.61,211.51,210.94,211.78Z" transform="translate(-42.95 -27.74)"/><path class="cls-1" d="M232.77,229c-.4,1.83,10.34,27.89,15,28.33s47.48-8.74,55.64-6.3c2.44,3.27,7.55,9.59,7.34,13.06,0,0,1.08,8.53.41,9,1.34.34,5-.89,5.91-3.29s.22-13.88.56-15.88,5.4-12.26-1.51-12.1-26.86.16-33.26-1.58-21-4.43-24.58-2.57-7.8,7.81-7.8,9.44c-1.51.35-2-1.17-.47-5.59s6.76-17.7,6.18-24.81C250.91,218.55,232.77,229,232.77,229Z" transform="translate(-42.95 -27.74)"/><path class="cls-1" d="M208.39,188c.45,1.21,1.14,3.37,2.39,4.39l-34.35-2.19s-4-2.47-2.39-3Z" transform="translate(-42.95 -27.74)"/><path class="cls-1" d="M170.63,185.13H205s-2.85-3.9-3.53-6.41c-6,0-31.69.49-31.69.49s-3.68-.26-3.68,6.45C166.08,187.48,168.81,190.17,170.63,185.13Z" transform="translate(-42.95 -27.74)"/><path class="cls-1" d="M123.89,190.84h7s2.28-1,0-3.7-6.71-4.21-3.53-9c-3.3-.57-8.19-1.59-7.39,9h-3.41s-1.25-6-9.1-6-27.41,8.08-27.41,8.08,22,6,27.53,6,9.21-5.45,9.21-5.45h2.73a25.65,25.65,0,0,0,2.61,5.91c0,2.84.12,6.67.12,6.67a4.73,4.73,0,0,0-2.85,5.16c.46,4,2.62,3.86,3.3,3.86s1.59-1.25,4.32-1.25c1.37-1.36.47-6.24-2.16-7.28,0-2.27-.23-4.77-.23-4.77s2.85-1.81,2.51-3.46S123.89,193.06,123.89,190.84Z" transform="translate(-42.95 -27.74)"/><path class="cls-1" d="M179.43,224.06l.21-.12c2.21-1.31,3.13-4.66,3.17-4.8l0-.13v-.13c0-.15-.3-15.67-.3-20.22,0-5.18-8.73-8.54-9.1-8.68l-.52-.2-.42.38c-.76.69-3.1,2.49-4.77,2.49-2.16,0-3.4-.34-5.52-2.46l-.27-.27h-.38c-7,0-10.44,8.45-10.58,8.81l-.06.3c-.07,1.66-.6,16.21,0,18.69a15.17,15.17,0,0,0,3.11,5.28c-1.41,4.94-8.56,31.77,1,35.15v4.59h23v-4.82C186.87,254,181.28,230.83,179.43,224.06Zm-26.68-24.79c.43-1,3.33-7.22,8.44-7.5a8.18,8.18,0,0,0,6.54,2.72c2.18,0,4.57-1.77,5.57-2.59,2.46,1,7.4,3.73,7.4,6.76,0,4.34.27,18.57.3,20.12a7.38,7.38,0,0,1-2.1,3.45l-4.58-.08v-8.77H158.69v8.53l-3.2-.06a13.68,13.68,0,0,1-2.77-4.57C152.31,215.6,152.51,205.66,152.75,199.27Zm16.06,55h-4.19a1.84,1.84,0,0,1,0-3.67h4.19a1.84,1.84,0,0,1,0,3.67Zm8.66,1.9-11.3-12.64-10.41,12.92v0c-7-2.28-2.53-23.8,0-32.75l21.76.34C180,232.92,184,253,177.47,256.2Z" transform="translate(-42.95 -27.74)"/><path class="cls-1" d="M174.38,233a4.51,4.51,0,0,0-.69-6.28H160.13c-4.34,0-2.94,6-2.94,6l8.6,7.34S171.83,236.66,174.38,233Z" transform="translate(-42.95 -27.74)"/><path class="cls-1" d="M168.73,241.47l8.13,9.75s-.85-11.54-1.16-15.33C173.76,236.2,168.73,241.47,168.73,241.47Z" transform="translate(-42.95 -27.74)"/><path class="cls-1" d="M156.8,235.89c-.31,3.79-1.16,15.33-1.16,15.33l8.13-9.75S158.74,236.2,156.8,235.89Z" transform="translate(-42.95 -27.74)"/><path class="cls-1" d="M172.91,210.72h1.41V209.3a1.41,1.41,0,0,0-1.41-1.41H160.1a1.41,1.41,0,0,0-1.41,1.41v1.42h14.22Z" transform="translate(-42.95 -27.74)"/><path class="cls-1" d="M154.25,264.09h-1.53v1.53a1.52,1.52,0,0,0,1.53,1.53h23.89a1.53,1.53,0,0,0,1.53-1.53v-1.53H154.25Z" transform="translate(-42.95 -27.74)"/><path class="cls-1" d="M222.48,398.33A209.42,209.42,0,0,1,44.29,299.05L43,296.88l2.23-1.26c.13-.07,11.92-6.77,18.52-15.82a15.51,15.51,0,0,1-9.57-9.38,9.94,9.94,0,0,1,.89-9.33,9.76,9.76,0,0,1,8-4A9.36,9.36,0,0,1,69.93,260c1.51,1.61,3.25,4.61,2.93,9.76a20.29,20.29,0,0,1-1.54,6.49c6.93.15,14.91-3,21.89-8.56L95.34,266l1.46,2.29a148.71,148.71,0,0,0,251.36,0l1.46-2.29,2.13,1.68c6.88,5.44,14.75,8.57,21.58,8.56h.31a20.56,20.56,0,0,1-1.54-6.49c-.31-5.15,1.42-8.15,2.93-9.76a9.36,9.36,0,0,1,6.9-2.93,9.78,9.78,0,0,1,8,4,10,10,0,0,1,.88,9.33,15.51,15.51,0,0,1-9.57,9.38c6.61,9.07,18.39,15.75,18.52,15.82l2.24,1.26-1.35,2.17a209.39,209.39,0,0,1-178.19,99.28ZM49.78,298.57a204.65,204.65,0,0,0,345.41,0c-4.26-2.69-13.61-9.19-19-17.54h-.05l0-.06c-.9.09-1.82.14-2.76.14-7.3,0-15.2-2.82-22.47-8a153.6,153.6,0,0,1-256.76,0c-7.27,5.18-15.16,8-22.47,8a27.36,27.36,0,0,1-2.75-.14l0,.06h0C63.39,289.38,54,295.88,49.78,298.57ZM63,261.94a4.92,4.92,0,0,0-4,2,5.18,5.18,0,0,0-.28,4.84,11,11,0,0,0,7.56,6.75A16.65,16.65,0,0,0,68,269.43c.17-2.7-.39-4.81-1.61-6.1A4.47,4.47,0,0,0,63,261.94Zm318.89,0a4.49,4.49,0,0,0-3.33,1.39c-1.22,1.29-1.77,3.4-1.61,6.1a16.48,16.48,0,0,0,1.68,6.07,11,11,0,0,0,7.56-6.75,5.15,5.15,0,0,0-.29-4.84A4.92,4.92,0,0,0,381.93,261.94Z" transform="translate(-42.95 -27.74)"/><path class="cls-1" d="M361.78,269.72l-2.12-1.23a158.52,158.52,0,0,0,21.45-79.68c0-87.46-71.16-158.62-158.63-158.62S63.86,101.35,63.86,188.81A158.51,158.51,0,0,0,85.3,268.49l-2.12,1.23a161,161,0,0,1-21.77-80.91c0-88.81,72.25-161.07,161.07-161.07S383.56,100,383.56,188.81A160.93,160.93,0,0,1,361.78,269.72Z" transform="translate(-42.95 -27.74)"/><path class="cls-1" d="M355.55,265.53l-4.24-2.45a148.6,148.6,0,0,0,19.85-74.27c0-82-66.69-148.68-148.68-148.68S73.8,106.83,73.8,188.81a148.7,148.7,0,0,0,19.85,74.27l-4.24,2.45A153.49,153.49,0,0,1,68.9,188.81c0-84.68,68.9-153.57,153.58-153.57s153.58,68.89,153.58,153.57A153.49,153.49,0,0,1,355.55,265.53Z" transform="translate(-42.95 -27.74)"/><path class="cls-1" d="M98.63,307.36a174.26,174.26,0,0,1-14.39-17.12L84,293.37q4.77,6.28,10.08,12.13l-1,.92a102.67,102.67,0,0,0-14.23-7.37c-.32,1.6-.61,3.21-.88,4.84a17.42,17.42,0,0,1,3,6.27,16.07,16.07,0,0,1,.21,5.46c-.27,2-.53,3.93-.74,5.92l15.29-14.3c1,1.1,2.07,2.18,3.11,3.26Zm-17.35-3.47a68.45,68.45,0,0,1,9.4,4.69l-7.9,7.18C83.43,312.18,82.88,308.25,81.28,303.89Z" transform="translate(-42.95 -27.74)"/><path class="cls-1" d="M105.33,314l-1.43-1.34a4.76,4.76,0,0,1,.25-1.68l.88-1.41-.18-1.08a36.89,36.89,0,0,0-5.56,7,13.17,13.17,0,0,0,1.25-4.19c0-1.36-.66-2.77-2.09-4.27A17.8,17.8,0,0,0,97,305.62l.22,3.19a5.47,5.47,0,0,1,1.89,3.35,3.66,3.66,0,0,1-1,3.19L87.41,326.2l.35,3.28L102.5,314.1q1.59,1.53,3.22,3Z" transform="translate(-42.95 -27.74)"/><path class="cls-1" d="M108.94,329.15a4.19,4.19,0,0,0,3.2-1.56A4.45,4.45,0,0,0,113,324a5.71,5.71,0,0,0-5.75-4.81,4.29,4.29,0,0,0-3.36,1.3,4.13,4.13,0,0,0-.91,3.59,6.08,6.08,0,0,0,2.16,3.74A5.29,5.29,0,0,0,108.94,329.15Zm-3.87,15c-1.36-8-2.42-14.12-3.71-18.45l-3,3.43c2.19,5.87,4.14,11.34,5.7,16.41Zm3.17-17.76a4.71,4.71,0,0,1-3.11-1.17,1.3,1.3,0,0,1-.11-2.08,3.56,3.56,0,0,1,2.69-1.1,4.23,4.23,0,0,1,3,1,1.45,1.45,0,0,1,.19,2.31A3.2,3.2,0,0,1,108.24,326.37Z" transform="translate(-42.95 -27.74)"/><path class="cls-1" d="M136.37,337.1a172.61,172.61,0,0,1-21-14.44c.22,1,.44,2.12.68,3.17a170.87,170.87,0,0,0,15.7,10.89l-2.91,4.74c.41-2.52-.2-4.27-1.83-5.34a3.39,3.39,0,0,0-2.07-.34,2.25,2.25,0,0,0-1.76.68,7.54,7.54,0,0,0-3.08-5.16,5,5,0,0,0-4.33-.84,6,6,0,0,0-3.37,2.21,4.8,4.8,0,0,0-.87,4.44,8,8,0,0,0,3.36,4.37,5.29,5.29,0,0,0,2.48,1,2.05,2.05,0,0,0,2.13-.66,3.51,3.51,0,0,0,.55-2.4,2.88,2.88,0,0,0-1.28-2.19,3.21,3.21,0,0,0-2-.61,1.88,1.88,0,0,0-1.6.74,2.31,2.31,0,0,0-.34,1.71c-1.67-1.57-2-3-1.11-4.21a3.22,3.22,0,0,1,2.61-1.28,5.23,5.23,0,0,1,3.23,1,6.55,6.55,0,0,1,2.27,2.85,4.29,4.29,0,0,1,.23,3.19l1.06.32a8.18,8.18,0,0,1,.61-1.2,1.74,1.74,0,0,1,2.71-.52,3.45,3.45,0,0,1,1.4,1.87,2.34,2.34,0,0,1,0,2l-5.89,9.57,1.27,3.1L133.78,338c1.23.73,2.47,1.45,3.72,2.15C137.11,339.12,136.73,338.11,136.37,337.1Z" transform="translate(-42.95 -27.74)"/><path class="cls-1" d="M145.1,341.85l-1.75-.9a5,5,0,0,1-.23-1.68l.45-1.6-.47-1a36.43,36.43,0,0,0-3.39,8.27,12.89,12.89,0,0,0,0-4.37c-.34-1.32-1.4-2.48-3.19-3.52a19.9,19.9,0,0,0-1.79-.91l1.1,3a5.43,5.43,0,0,1,2.74,2.68,3.62,3.62,0,0,1-.08,3.36l-7.21,13.39,1.26,3.06,9.84-18.89c1.31.67,2.61,1.34,3.93,2C145.92,343.77,145.5,342.81,145.1,341.85Z" transform="translate(-42.95 -27.74)"/><path class="cls-1" d="M157.74,347.62q-6.9-2.82-13.54-6.23l1.21,2.93c2.18,1.09,4.39,2.12,6.61,3.12-4.28,1.6-7.25,3.81-8.72,6.89a10.67,10.67,0,0,0-1,6.76,7.75,7.75,0,0,0,4.89,6,5.76,5.76,0,0,0,3.48.4,2.76,2.76,0,0,0,2.18-1.68,3.55,3.55,0,0,0-1.92-3.67,4,4,0,0,0-2.27-.22,1.88,1.88,0,0,0-1.54,1,2.81,2.81,0,0,0,.59,2.68l-.66-.1a4.85,4.85,0,0,1-2.77-3.75,6.76,6.76,0,0,1,.37-4.2,12.47,12.47,0,0,1,5.48-6.07,13.32,13.32,0,0,1,9-1.1Z" transform="translate(-42.95 -27.74)"/><path class="cls-1" d="M179.22,354.76A170.62,170.62,0,0,1,157,347.31l1.5,2.84,2.57,1L157,362q1.13,1.92,2.31,3.82a14.92,14.92,0,0,1,5.45-3.18,19.54,19.54,0,0,1,6.79-1.1,17.9,17.9,0,0,0-2.3,4.69,32.5,32.5,0,0,0-.86,8.59L170,376a29.4,29.4,0,0,1,.74-6.16c.81-2.8,2.81-5.55,5.86-8.35-1.17-1.22-2.31-2.46-3.44-3.7a36,36,0,0,0-6.34.93c-2,.5-4.07,1-6.17,1.39l2.9-8a172.9,172.9,0,0,0,17.59,5.31Z" transform="translate(-42.95 -27.74)"/><path class="cls-1" d="M204.24,359.31a2.56,2.56,0,0,1-2.36-2.68,18.62,18.62,0,0,0-1.28-1.39c-.24,2.53-.4,6-.45,10.42a19.15,19.15,0,0,0-2.26-4.23c-1.38-2.11-2.39-3.23-3.15-3.36a6.23,6.23,0,0,0-3.7.58,8.13,8.13,0,0,0-2.78,2.09,4.51,4.51,0,0,0-1.42-3,6.13,6.13,0,0,0-3.12-1.85c-1.67-.39-3.32-.79-5-1.23l1.82,2.6a31.31,31.31,0,0,1,3.83,1,3.93,3.93,0,0,1,2.2,2.78,6.58,6.58,0,0,0-3.24,1.08,4,4,0,0,0-1.89,2.35,2.63,2.63,0,0,0,.42,2.11,3,3,0,0,0,2,1.33,4.52,4.52,0,0,0,2.51-.21,4.28,4.28,0,0,0,2-1.34,4.47,4.47,0,0,0,3.35,2.84q3.23.53,3.62-2.09a3.17,3.17,0,0,0-.88-2.48c-.37-.42-1.1-1.08-2.17-2,.08-.43.47-.74,1.16-1a3.61,3.61,0,0,1,1.73-.17c.84.14,1.71.87,2.65,2.23s1.4,2.4,1.3,3.15l-1.9,12.47,2.53,2.39,2.41-20.64c1.43.17,2.85.31,4.28.45Z" transform="translate(-42.95 -27.74)"/><path class="cls-1" d="M241.36,359.24a174.6,174.6,0,0,1-25.36.91c.77.72,1.55,1.43,2.34,2.14,3.27.07,6.56.06,9.83,0,0,.18,0,.82-.06,1.9s-.06,2,0,2.67c.12,4.22,1.46,6.31,4,6.18a8.47,8.47,0,0,0,4-1.69c1.59-1.08,2.48-2,2.68-2.84a3.46,3.46,0,0,1,1.65,2.41c.14,1.45-.57,2.78-2.19,3.94a9.21,9.21,0,0,1-5.12,1.78,9.42,9.42,0,0,1-8.56-4.26,16,16,0,0,1-2.93-8.18l-1.42-.66c.58,5.64,2,9.9,4.23,12.69a10.47,10.47,0,0,0,9.22,3.92c3.05-.18,5.37-1.11,6.87-2.72a7,7,0,0,0,1.72-5.8,7.82,7.82,0,0,0-1.61-3.75,7,7,0,0,0-3.54-2.57c-.84,1-1.7,2-2.57,2.91a5.51,5.51,0,0,1-3.63,1.8l-.36-7.82c4.49-.22,9-.59,13.45-1.14Z" transform="translate(-42.95 -27.74)"/><path class="cls-1" d="M251.44,357.83l-1.93.32a4.78,4.78,0,0,1-1.18-1.21l-.6-1.55-1-.52a36.42,36.42,0,0,0,2.2,8.66,12.72,12.72,0,0,0-2.58-3.52c-1.06-.87-2.61-1.16-4.66-.94-.63.08-1.29.19-2,.34.89.59,1.77,1.17,2.68,1.75a5.41,5.41,0,0,1,3.8.53,3.61,3.61,0,0,1,1.93,2.74l2.18,15.05c.94.58,1.88,1.15,2.83,1.71l-3.33-21c1.45-.22,2.89-.48,4.34-.74Z" transform="translate(-42.95 -27.74)"/><path class="cls-1" d="M277.55,351.23a170.5,170.5,0,0,1-27.1,6.77c.91.55,1.83,1.08,2.76,1.62q7.25-1.29,14.36-3.2l.41,1.52a60.8,60.8,0,0,0-12.22,9c1.35.91,2.72,1.82,4.11,2.7,6-.71,10.72,1,14.42,5.39l1.14.43L271,359.85l.66-.23a7.65,7.65,0,0,1,4.91.08,4.59,4.59,0,0,1,3.2,2.85l0,.4a3.24,3.24,0,0,0-2.69-.21,7.28,7.28,0,0,0-1.35.63,2.58,2.58,0,0,0-.77,2.4,2.07,2.07,0,0,0,1.49,1.37,3.81,3.81,0,0,0,2.45,0,4.1,4.1,0,0,0,2.52-2,3.48,3.48,0,0,0,.29-2.83,8.05,8.05,0,0,0-4.21-4.46,8.8,8.8,0,0,0-6.76-.82l-.47.14-.39-1.37q5.36-1.52,10.6-3.38ZM260.9,366.55a63.52,63.52,0,0,1,7.75-6.1l2.79,10.39A19.2,19.2,0,0,0,260.9,366.55Z" transform="translate(-42.95 -27.74)"/><path class="cls-1" d="M311.06,331.54c-5.84-1-10.61-.53-14.71,1.58a10.56,10.56,0,0,0-4.22,4.29c-1.22,2.12-1.55,3.92-.88,5.4a2.22,2.22,0,0,0,1.46,1.07l1.91.51c-1.86.86-3.74,1.71-5.64,2.5,1,.33,2,.65,3,1l3.24-1.46L303,363.23l3.33.62-8.89-18.51c1.25-.61,2.5-1.21,3.73-1.85-1-.24-2.05-.5-3.08-.77l-2.28,1.1-1.61-1.3c-.49-1.27-.06-2.8,1.19-4.66a10.74,10.74,0,0,1,3.83-3.73,15.93,15.93,0,0,1,6.4-1.84c.82-.07,3,0,6.54.08Z" transform="translate(-42.95 -27.74)"/><path class="cls-1" d="M316.72,332.06a170.74,170.74,0,0,1-19.42,11.06l3,.81c4.69-2.36,9.29-4.93,13.74-7.72l.73,1.17A103,103,0,0,0,305,350.05c1.53.6,3,1.17,4.6,1.74a17.52,17.52,0,0,1,6.71-1.8,16.11,16.11,0,0,1,5.42.78c1.87.61,3.77,1.23,5.68,1.79l-11.31-17.62c1.26-.8,2.51-1.63,3.75-2.47Zm-6.53,16.44a67.85,67.85,0,0,1,6.31-8.4l5.64,9.06C318.73,347.87,314.77,347.71,310.19,348.5Z" transform="translate(-42.95 -27.74)"/><path class="cls-1" d="M336.28,317.05a173.49,173.49,0,0,1-20.6,15.69l3.19.38a174.74,174.74,0,0,0,20.65-16.21C338.44,317,337.35,317,336.28,317.05Zm4,5.71c-2.24-.49-3.71-.44-4.48.17l-.06.16a7.87,7.87,0,0,1-.06,3.48,5.47,5.47,0,0,1-1.44,3.3h-.13a3.39,3.39,0,0,0-.44-2.24,2.12,2.12,0,0,0-1.81-.76,3.57,3.57,0,0,0-2.14.77,4.62,4.62,0,0,0-1.78,2.43,2.81,2.81,0,0,0,.51,2.51,3.47,3.47,0,0,0,3.22,1.38,6.78,6.78,0,0,0,3.85-1.58,10.7,10.7,0,0,0,3-3.38,9.58,9.58,0,0,0,1-4l.09-.13c.3-.27.83-.19,1.59.22a5.15,5.15,0,0,1,1.36,1,4.48,4.48,0,0,1,.72,4.24,8.1,8.1,0,0,1-2.77,4.38,12.25,12.25,0,0,1-9.92,2.63,19.19,19.19,0,0,1-8.41-3.7l-1.52.55c4.31,3,7.57,4.75,9.68,5.44a12.17,12.17,0,0,0,11.92-2,10.4,10.4,0,0,0,4.1-6.88,7.69,7.69,0,0,0-2-6.37C343.74,323.77,342.38,323.22,340.29,322.76Z" transform="translate(-42.95 -27.74)"/><path class="cls-1" d="M343.69,310.06l-1.4,1.38a5.07,5.07,0,0,1-1.66-.3l-1.38-.92-1.09.13a36.62,36.62,0,0,0,6.81,5.8,12.7,12.7,0,0,0-4.15-1.39c-1.36-.09-2.79.57-4.34,1.94-.47.43-.94.9-1.42,1.42,1.06,0,2.12-.07,3.19-.12a5.4,5.4,0,0,1,3.41-1.77,3.63,3.63,0,0,1,3.16,1.12l10.49,11,3.29-.25-14.89-15.23c1.05-1,2.09-2.07,3.11-3.12Z" transform="translate(-42.95 -27.74)"/><path class="cls-1" d="M359.36,292.21l-.47.6a1.85,1.85,0,0,1-2.95.31l-.39-.49-1.8.38c1.17.92,2.69,2,4.6,3.34l4.73,3.18a15.12,15.12,0,0,0-5.87-1c-1.92.18-3.74,1.28-5.49,3.3a11.27,11.27,0,0,0-2.62,5c-.46,2-.12,3.63,1.07,4.77a2.85,2.85,0,0,0,1.94.7,2.58,2.58,0,0,0,2-.77,7.1,7.1,0,0,0,1.08-2.44,7.24,7.24,0,0,1,.94-2.33c.6-.67,1.11-.82,1.56-.43.3.27.47,1.38.45,3.35a21.34,21.34,0,0,1-.28,3.88c1.32-.14,2.65-.28,4-.45.16-4.5-.48-7.21-1.68-8.22a3.08,3.08,0,0,0-3-.64,6.57,6.57,0,0,0-2.92,2,9.85,9.85,0,0,0-1.6,2.68c-.78-2.16-.28-4.19,1.45-6.19a6.7,6.7,0,0,1,5.11-2.16,7.05,7.05,0,0,1,5,1.26l8.15,6.77c1.35-.21,2.73-.43,4.1-.68l-16.75-13c.89-1.14,1.76-2.3,2.63-3.47Z" transform="translate(-42.95 -27.74)"/><path class="cls-1" d="M137.63,85.9a9.46,9.46,0,0,0-3.56,7.8,9.15,9.15,0,0,0,2.46,6.46,9.49,9.49,0,0,0,5.09,2.72,7.28,7.28,0,0,0,6.31-1.73,4.62,4.62,0,0,0,1.53-2.39,2.53,2.53,0,0,0-.37-2.31,1.86,1.86,0,0,0-1.35-.6,2.05,2.05,0,0,0-1.59.44,5.74,5.74,0,0,0-1.61,1.79,1.67,1.67,0,0,0,.39,1.84c.29.34.94.42,1.95.27l0,.11a4.88,4.88,0,0,1-4.44,1.15,6.62,6.62,0,0,1-3.49-2,8.09,8.09,0,0,1-2.14-6.28,11,11,0,0,1,3.88-7.58Z" transform="translate(-42.95 -27.74)"/><path class="cls-1" d="M159.62,71.14a134,134,0,0,0-22.78,15.41,15.29,15.29,0,0,0,3.4-.57,6.29,6.29,0,0,0,3.94-1.23,21,21,0,0,1,3.5-2,3.55,3.55,0,0,1,3.67,1.42c-.66,3.16-1.13,4.89-1.62,5.25a2.1,2.1,0,0,1-1.73.2,2.93,2.93,0,0,1-1.44-.63l-.6,1.81c2.53.7,4.12.91,4.85.54a3.44,3.44,0,0,0,1.68-.85,4.37,4.37,0,0,0,1.61-2.83c.16-1.16.35-2.33.58-3.49a3.93,3.93,0,0,1,1.65-2.72,4.56,4.56,0,0,1,2.18-.54c.94,0,1.5.14,1.71.48l3.88,6.68c1,.19,1.89.38,2.83.59l-8.36-15c1.35-.76,2.72-1.48,4.09-2.19Zm-2.91,8.38a4.42,4.42,0,0,0-2.83.4,4.64,4.64,0,0,0-1.06,1.32l-1,1.52-.46-.69c-.62-.92-2.13-1.3-4.57-1q4.67-3.29,9.6-6.15l3,5.11C157.92,79.69,157,79.54,156.71,79.52Z" transform="translate(-42.95 -27.74)"/><path class="cls-1" d="M180.54,62.15a132.62,132.62,0,0,0-21.91,9.53l3,.34a132.75,132.75,0,0,1,15-6.69l.39,1.07A44.74,44.74,0,0,0,165.73,77c1.37.44,2.73.9,4.07,1.38a13.62,13.62,0,0,1,6.1-1.18,11.66,11.66,0,0,1,4.51,1.27q2.19,1.18,4.3,2.43L179,64.5c1.48-.52,3-1,4.46-1.47Zm-9.9,13.41A36.16,36.16,0,0,1,178,68.89l3.07,8.28C178.43,75.59,174.93,75,170.64,75.56Z" transform="translate(-42.95 -27.74)"/><path class="cls-1" d="M190.22,59.35l-2,.53a4.54,4.54,0,0,1-1.32-.83l-.74-1.19L185,57.61A26.8,26.8,0,0,0,188,64.43a8.76,8.76,0,0,0-2.9-2.49c-1.17-.52-2.83-.45-4.93.25a18.81,18.81,0,0,0-2,.79l3,.75a6.16,6.16,0,0,1,3.91-.37,2.77,2.77,0,0,1,2.18,1.94l3.45,12.11,2.46,1.13-4.52-17c1.48-.39,3-.76,4.46-1.1C192.14,60,191.18,59.69,190.22,59.35Z" transform="translate(-42.95 -27.74)"/><path class="cls-1" d="M213.42,55.73l-2.09.15c.12-3.1-3.32-4.52-10.26-3.47-.69.11-1.72.33-3.07.68s-2.37.62-3.06.76a7,7,0,0,1-2.53.06c-.93-.13-1.46-.44-1.57-.94s.17-1.13.95-1.64l-1,.15c-.35.06-.7.38-1,1a2.07,2.07,0,0,0-.39,1.23c.28,1.14,1.41,1.81,3.36,2.08a16.68,16.68,0,0,0,5.33-.18l3.67-.74c1.63-.33,2.86-.53,3.69-.63a11.79,11.79,0,0,1,2.29-.06c1,.09,1.54.33,1.58.71s-.37.75-1.23,1.07a8.92,8.92,0,0,1-2,.51,132.68,132.68,0,0,0-16.67,3.14l2.87,1.06q3.85-.91,7.77-1.58c1.15.37,1.74.69,1.78,1l0,.08a7.38,7.38,0,0,0-3.6,1.75A2.84,2.84,0,0,0,197,64.55a1.36,1.36,0,0,0,1.08,1,4.27,4.27,0,0,0,2,.08A5.67,5.67,0,0,0,203,64.16a2.66,2.66,0,0,0,1.14-2.29,4.31,4.31,0,0,1,1.15-.33,3.35,3.35,0,0,1,2.46.52,2.46,2.46,0,0,1,1.1,1.76c.1.91-.73,1.78-2.42,2.65a14.59,14.59,0,0,1-4.27,1.45,18.46,18.46,0,0,1-6.88,0c1.23,1.16,2.44,2.34,3.61,3.52a32.05,32.05,0,0,1,9.75,1.28,23.82,23.82,0,0,1,8,4.07l-.82-2.24a38.43,38.43,0,0,0-10.09-4.72c2.56-1.47,4-2.22,4.29-2.41a3.72,3.72,0,0,0-.28-6.65,17.53,17.53,0,0,0-3.93-1.14c-1.51-.3-2.39-.63-2.63-1.06q6.45-.94,13-1.26C215.19,56.76,214.31,56.24,213.42,55.73Z" transform="translate(-42.95 -27.74)"/><path class="cls-1" d="M257.56,60.09a133.17,133.17,0,0,0-30.87-4.6l2.47,1.81A132.77,132.77,0,0,1,253,60.68L250.41,71.4c-.51-1.25-1-2.49-1.6-3.73a2.65,2.65,0,0,0,.33-.86,5.07,5.07,0,0,0-1.56-4.56,8.8,8.8,0,0,0-5.39-2.83,7.63,7.63,0,0,0-3.2.1c-1.11.29-1.7.82-1.79,1.57a2,2,0,0,0,1,1.8,5.81,5.81,0,0,0,2.56,1,3.37,3.37,0,0,0,3.54-1.2,2,2,0,0,1,1.61,1.51,3.56,3.56,0,0,1,.26,2A2.38,2.38,0,0,1,244.51,68a6.37,6.37,0,0,1-3.23.26,10.36,10.36,0,0,1-6.74-3.7,28.25,28.25,0,0,1-3.3-5.88l-1.52-.53a20,20,0,0,0,3.65,7.72c2.3,3.09,4.84,4.82,7.87,5.31a7.49,7.49,0,0,0,5.94-1.45,14.22,14.22,0,0,1,3.26,7.5l.69.69,4.28-16.62c1.4.36,2.79.75,4.18,1.15C258.93,61.66,258.25,60.87,257.56,60.09Z" transform="translate(-42.95 -27.74)"/><path class="cls-1" d="M267.75,63.31l-2-.7a4.58,4.58,0,0,1-.64-1.42l.06-1.4-.77-.81a26.15,26.15,0,0,0-1.36,7.29,9.1,9.1,0,0,0-1-3.68c-.68-1.09-2.1-2-4.24-2.54a17.76,17.76,0,0,0-2.11-.46c.71.76,1.41,1.53,2.09,2.3a6.16,6.16,0,0,1,3.46,1.87,2.79,2.79,0,0,1,.74,2.82l-3.88,12c.49.76,1,1.54,1.42,2.31l5.72-16.68c1.45.5,2.89,1,4.32,1.57Q268.66,64.53,267.75,63.31Z" transform="translate(-42.95 -27.74)"/><path class="cls-1" d="M289.5,73.46A132.55,132.55,0,0,0,266.74,63c.63.82,1.25,1.66,1.85,2.49l2.68,1-3.55,8.89c.69,1.11,1.35,2.21,2,3.33a10.7,10.7,0,0,1,5-2.11,15.8,15.8,0,0,1,6.35.3,12.91,12.91,0,0,0-2.69,3.41,30.53,30.53,0,0,0-2,6.86l1.07,1.22a26.39,26.39,0,0,1,1.71-4.84c1.15-2.12,3.31-4,6.64-5.41-.87-1.34-1.77-2.66-2.7-4a25.63,25.63,0,0,0-6.18-.54c-1.95.09-3.89.22-5.84.4l2.75-6.5a131.14,131.14,0,0,1,17,8.75C290.41,75.33,290,74.39,289.5,73.46Z" transform="translate(-42.95 -27.74)"/><path class="cls-1" d="M311.45,89.44c-1.18-1.21-1.47-2.32-.84-3.38a17.59,17.59,0,0,0-.57-1.8c-1.28,1.68-2.88,4.07-4.85,7.16a13.17,13.17,0,0,0-.12-4.28c-.33-2.3-.87-3.71-1.51-4.21A7.26,7.26,0,0,0,300,81.48a6.82,6.82,0,0,0-3.21.34,3.81,3.81,0,0,0-.47-3,7.14,7.14,0,0,0-2.56-2.78c-1.54-1-3.1-1.92-4.68-2.84L290.35,76a27.3,27.3,0,0,1,3.46,2.28,3.73,3.73,0,0,1,1.3,3.1,6.2,6.2,0,0,0-3.25-.42,3,3,0,0,0-2.29,1.2,2.13,2.13,0,0,0-.16,1.82,3.13,3.13,0,0,0,1.34,1.73,4.76,4.76,0,0,0,2.2.77,3.92,3.92,0,0,0,2.07-.25,4.62,4.62,0,0,0,1.82,3.58c1.62,1.22,2.86,1.29,3.76.15a2.45,2.45,0,0,0,.23-2.26,24.42,24.42,0,0,0-1.13-2.59c.21-.29.67-.34,1.36-.15a4.25,4.25,0,0,1,1.59.75,4.72,4.72,0,0,1,1.41,3.05c.24,1.49.13,2.48-.27,2.95l-6.87,7.86c.23.93.44,1.86.64,2.79l11.28-13c1.14,1,2.24,2,3.34,3C312,91.4,311.71,90.42,311.45,89.44Z" transform="translate(-42.95 -27.74)"/><path class="cls-1" d="M319.54,85.28a129.85,129.85,0,0,0-16.32-4.37c1.65,1.24,3.28,2.51,4.87,3.83a130.46,130.46,0,0,1,13,2.33Z" transform="translate(-42.95 -27.74)"/></svg>