<svg xmlns="http://www.w3.org/2000/svg" viewBox="0 0 120 120"><defs><style>.a{fill:#e94c2d;}</style></defs><path class="a" d="M39.83,58.66H23.62a4.12,4.12,0,0,1-4.11-4.11v-.47A4.12,4.12,0,0,1,23.62,50H39.83a4.12,4.12,0,0,1,4.11,4.11v.47A4.12,4.12,0,0,1,39.83,58.66ZM23.62,52.5A1.59,1.59,0,0,0,22,54.08v.47a1.59,1.59,0,0,0,1.59,1.58H39.83a1.58,1.58,0,0,0,1.58-1.58v-.47a1.58,1.58,0,0,0-1.58-1.58Z"/><path class="a" d="M26.79,52.59a1.25,1.25,0,0,1-.87-.35,41.14,41.14,0,0,1-3.32-3.61c-2.42-3-3.21-5.15-2.49-6.72,1.63-3.49,4.45-2.31,6.71-1.36l.45.19c1.15.47,4.2.7,11.62-3.13,2.81-1.45,5.42-1.25,6.64.52,2,2.85-.71,8-7.39,14a1.26,1.26,0,1,1-1.69-1.87c7.27-6.61,7.53-10,7-10.73-.37-.53-1.69-.61-3.41.28-6.44,3.33-10.94,4.38-13.75,3.22l-.45-.19c-2.77-1.16-2.93-1-3.45.1-.4.88,2.15,4.49,5.25,7.43a1.25,1.25,0,0,1,.05,1.78A1.27,1.27,0,0,1,26.79,52.59Z"/><path class="a" d="M31,52.5a1.17,1.17,0,0,1-.47-.1,1.25,1.25,0,0,1-.7-1.63c.09-.23,2.24-5.51,6-7a1.26,1.26,0,1,1,.92,2.35c-2.25.87-4,4.3-4.54,5.54A1.27,1.27,0,0,1,31,52.5Z"/><path class="a" d="M99.38,63.08c-.34-.72-.72-1.42-1.08-2.13l-2.88-5.7Q94,52.39,92.53,49.52c-1.11-2.18-2.21-4.35-3.34-6.52a1.38,1.38,0,0,0-1.93-.66c-1.18.6-2.34,1.24-3.5,1.88L81.6,45.44c-1.46.77-2.29,1.24-2.75,1.53l-.08.06a5.64,5.64,0,0,0-.5.4h0a4,4,0,0,0-.53.57c-.26.35-.13.82.12,1.31,0,0,0,0,0,0,.43.92.84,1.83,1.29,2.74.73,1.47,1.48,2.93,2.22,4.39l3.54,7c.86,1.68,1.69,3.38,2.56,5.05.09.17.17.35.25.52h0A1.62,1.62,0,0,0,89,70.24h0l.09,0a4.62,4.62,0,0,0,1.35-.37h0a4.23,4.23,0,0,0,.9-.5h0l.57-.32c2.25-1.24,4.49-2.5,6.73-3.74A1.64,1.64,0,0,0,99.38,63.08Z"/><polygon class="a" points="94.71 47.15 92.46 43.37 97.14 39.52 100.23 42.69 94.71 47.15"/><path class="a" d="M106.47,56.66s4.08-4.35,5.16-5.88L108,47.86s-2.5,3.11-4.46,5Z"/><path class="a" d="M104.27,50.19a24.82,24.82,0,0,0,3.81-4.87l-3.75-4.68a48.78,48.78,0,0,1-4.08,4.17Z"/><path class="a" d="M98.94,38l2.48,2.77a25.38,25.38,0,0,0,4-4.41l-2.51-2.4A39.08,39.08,0,0,1,98.94,38Z"/><path class="a" d="M113.06,48.92l-2.84-3.45a30.18,30.18,0,0,0,2.91-4.21l2.52,2.82S113.73,47.82,113.06,48.92Z"/><path class="a" d="M106.86,38.24s2.58-3.59,2.82-4.61l3,3.08a49.88,49.88,0,0,1-3,4.88Z"/><path class="a" d="M105,31.24l2.27,2.14,2-4.06-2.23-1.9A20.26,20.26,0,0,1,105,31.24Z"/><path class="a" d="M117.68,39.77l-2.29-1.4,1.42-4.44L119,35.57A18.58,18.58,0,0,1,117.68,39.77Z"/><path class="a" d="M112.12,31.05a13.1,13.1,0,0,0,1-4.85c0-.78,2.49,1.48,2.49,1.48s.38,2.15-1.43,5.45Z"/><path class="a" d="M120,24.37l-2.52-.17-.58-3.49,1.93-.16A15.41,15.41,0,0,1,120,24.37Z"/><path class="a" d="M108.08,23.93s.58-3.11.09-4.13l2,.63c.24,2.73,0,3.77-.2,4Z"/><polygon class="a" points="114.22 20.64 112.19 20.34 111.37 16.99 113.4 17.39 114.22 20.64"/><polygon class="a" points="112.5 12.16 110.94 13.19 109.12 11.38 110.03 10.26 112.5 12.16"/><polygon class="a" points="107.24 16.28 108.34 15.06 107.03 13.03 106.04 13.87 107.24 16.28"/><polygon class="a" points="106.08 9.72 105.17 10.68 106.69 12.27 107.45 11.04 106.08 9.72"/><polygon class="a" points="103.54 6.78 102.92 7.79 104.47 8.73 105.2 7.54 103.54 6.78"/><polygon class="a" points="101.31 6.8 102.4 7.95 101.88 8.8 100.83 7.6 101.31 6.8"/><polygon class="a" points="99.98 5.98 99.61 6.59 98.57 5.54 99.98 5.98"/><polygon class="a" points="96.55 47.68 92.45 50.74 95.75 57.32 100.36 53.03 96.55 47.68"/><polygon class="a" points="102.6 55.27 104.58 57.52 99.93 61.47 98.39 58.9 102.6 55.27"/><path class="a" d="M84.24,67.78c-.14-.39-.37-.75-.54-1.13l-3.32-7.17-2.73-5.93c-.29-.63-.6-1.25-.91-1.89l-1.35.63a22.81,22.81,0,0,1-5.25.52c-2.27-.11-4.54-.28-6.82-.29s-4.4.12-6.59.32a12,12,0,0,0-4.61,1.67,77.82,77.82,0,0,0-7.26,4.2,30.3,30.3,0,0,1,8.57,7.13c.26,0,7.86-1.74,8-1.74,1.3,0,1.54,1.75,0,2L56,67.53s3.49,6.16,4.58,10.26a18.81,18.81,0,0,1,2.08.45,16.36,16.36,0,0,0,6.75.42,14.22,14.22,0,0,0,5.86-2.29,23,23,0,0,0,4.87-4.73,9.43,9.43,0,0,1,4-3.32C84.22,68.29,84.29,67.94,84.24,67.78Z"/><path class="a" d="M42.81,82.27a7.22,7.22,0,0,1-5.55-2.33A7.38,7.38,0,0,1,35.53,73c-2.22.29-3.47,1.47-4.87,3.13-1.62-1.92-3-3.2-6-3.2-.37,0-.76,0-1.18.06-2.55.25-5.5,2.59-5.85,7.06v1.49c.33,4.28,3.56,9.56,13,16.19C39.6,91.47,43,86.4,43.59,82.24l-.78,0Z"/><path class="a" d="M58.61,79.91a5.12,5.12,0,0,0-.56,0l-1.77.25c3.49,9.53,4.08,19.93,1.38,23.57-4.87,6.58-29.3,11.62-45.73,5.19a13.71,13.71,0,0,1-8-7.47C.2,92.71,5.07,80.55,5.13,80.41c7-17.88,22.22-21.38,23.15-21.58,8.77-.36,16,4,20.39,8.31l2.71-.62.2,0c-6-6.52-14.69-10.56-23.49-10.16h0c-.17,0-17.63,3.46-25.3,23.16A41.29,41.29,0,0,0,.63,87.22c-1.1,6-.76,11.13,1,15.25A16.11,16.11,0,0,0,11,111.3a51.94,51.94,0,0,0,18.65,3.16,67.9,67.9,0,0,0,10.09-.76c9.52-1.45,17.16-4.68,19.94-8.44,3.37-4.55,2.52-15.67-.85-25.34ZM28.2,58.84Z"/><path class="a" d="M54.85,67.78c-2.43.61-4.89,1.1-7.32,1.7-2.15.53-4.29,1-6.43,1.58a4.46,4.46,0,0,0-2.17,7.38,4.85,4.85,0,0,0,4.6,1.3L49.07,79l4.49-.61,4.6-.64a8.31,8.31,0,0,1,2.39.06A34.4,34.4,0,0,0,56,67.53C55.59,67.58,55.23,67.74,54.85,67.78Z"/></svg>