<svg xmlns="http://www.w3.org/2000/svg" viewBox="0 0 120 120"><defs><style>.a{fill:#e94c2d;}</style></defs><path class="a" d="M32.12,94.47l-4.91,15.74s7.92,5.49,15.17,7.34,8.18,2.36,8.6,2.44a26,26,0,0,0,4.89-1.09c1.68-.5,14.59-6.15,15.63-6.32s4-2.37,4.94-3l10.2-6.32s-.93-3.3-4-3.11a10,10,0,0,0-1.27.17s-1-2.87-3.68-1.61c-1.21.84-2.22,1.52-2.22,1.52a2.45,2.45,0,0,0-3,.09,41.14,41.14,0,0,1-4.21,2.94c-.42.26-7.08,3-11.34,2.53l-2.57-1.26s.42-1.94,1.77-2.28,2.77-.25,5.81.34a6,6,0,0,0,6.84-6.16c-.09-1.17-1.77.26-5.4-.67S55.45,93.1,54.6,93s-4.38-.93-6.49,0-9.61,3.21-11.63,2.87A20.48,20.48,0,0,1,32.12,94.47Z"/><path class="a" d="M25.79,109.15a27.45,27.45,0,0,1-4.15-2.63l2.07-4.11a38.09,38.09,0,0,0,3.85,1.91Z"/><path class="a" d="M27.74,102.94a12.8,12.8,0,0,1-3.39-2l1.82-4.3a22.14,22.14,0,0,0,3.35,1.45Z"/><path class="a" d="M28.34,92.94l-1.25,2.64A13.56,13.56,0,0,1,23.64,94L25,91.55A20,20,0,0,0,28.34,92.94Z"/><path class="a" d="M20,105.25l1.82-3.72a15,15,0,0,1-2.66-1.86l-1.69,3.21S19.38,104.75,20,105.25Z"/><path class="a" d="M23,95.66a14.81,14.81,0,0,1-2.67-2.15l-1.58,3a23.24,23.24,0,0,0,2.82,2.27Z"/><path class="a" d="M23.12,90.42l-1.2,2.15-2-2,1.22-2A10.48,10.48,0,0,0,23.12,90.42Z"/><path class="a" d="M15.5,100.54l1.66-2.06L15.48,96l-1.54,2.17A10.24,10.24,0,0,0,15.5,100.54Z"/><path class="a" d="M18.23,92.58a7.33,7.33,0,0,1-1.47-2.89c-.11-.53-1.47,1.78-1.47,1.78a5.12,5.12,0,0,0,1.85,3.16Z"/><path class="a" d="M11.77,90.69l1.7-.94-.16-2.48L12,87.78A12,12,0,0,0,11.77,90.69Z"/><path class="a" d="M19.85,86.56a6.47,6.47,0,0,1-.72-2.7l-1.31,1.07c.27,1.89.62,2.49.77,2.57Z"/><polygon class="a" points="15.12 86.36 16.46 85.51 16.48 83.02 15.16 83.93 15.12 86.36"/><polygon class="a" points="14.94 80.17 16.16 80.36 17.13 78.59 16.32 78.13 14.94 80.17"/><polygon class="a" points="19.2 81.22 18.25 80.77 18.82 79 19.63 79.24 19.2 81.22"/><polygon class="a" points="18.94 76.51 19.71 76.84 18.93 78.39 18.22 77.82 18.94 76.51"/><polygon class="a" points="20.2 73.75 20.79 74.22 19.88 75.34 19.19 74.77 20.2 73.75"/><polygon class="a" points="21.73 73.04 21.17 74.14 21.66 74.55 22.19 73.41 21.73 73.04"/><polygon class="a" points="22.51 72.07 22.86 72.35 23.4 71.32 22.51 72.07"/><path class="a" d="M58.74,44.53c.56-1,1-1.76,1.18-2a9.94,9.94,0,0,1,4.18-2.71c2-.84,25.35-9.5,26.19-9.92A6.25,6.25,0,0,0,92,28.44l12,8.53-1.1,1.58s-7.09,9.81-9.38,14a11.16,11.16,0,0,1-6.68,5.73c-.59.18-2.3.72-4.28,1.42a46.66,46.66,0,0,0-7.31,3.07c-3.19,1.9-7.4,2.81-9.27,1.14s2.28-5.32,2.81-5.73c.27-.22,2.46-1.7,4.75-3.28,2.09-1.44,4.27-3,5.16-3.71,1.87-1.57-1.67-2.09-1.67-2.09L65,49.81,63.6,51.13l-6.07-4.92Z"/><path class="a" d="M82.57,61.18a43.21,43.21,0,0,0-6.4,2.73,15.12,15.12,0,0,1-7.25,2.23,5.61,5.61,0,0,1-3.83-1.25,2.93,2.93,0,0,1-1-2.31c.07-2.71,3.72-5.66,3.87-5.77s.75-.54,2.28-1.58l.48-.34-3.27-1.75c-.68-.47-1.34-1-2-1.42-1.72-1.28-3.27-2.53-4.58-3.64-.82-.68-1.54-1.31-2.16-1.86l0,0C58,45.55,57.42,45,57,44.65l-.59-.56,0,0-.39.69,0,0c-.86,1.49-1.86,3.07-2.95,4.67,0,0,0,0,0,0l-8.2,11c-8.83,11-18.4,20.92-18.4,20.92,2.7.49,12.54,7,19.15,11.56.86-.3,1.59-.57,2.06-.77a7.28,7.28,0,0,1,3-.51,20.46,20.46,0,0,1,3.45.35l.6.08a4.67,4.67,0,0,1,.82.19c4-5.09,10.69-13,16.36-19.65A15.73,15.73,0,0,0,73,71.2l3.77-4.41a75.23,75.23,0,0,1,6-5.5ZM56.75,85.81,54,86.93,44.77,81l-1.4,2.19-1.66-1.06,1.43-2.25-3.15-2c-1.08-.68-1.82-.71-2.21-.1a1.8,1.8,0,0,0-.23,1.3H35.81a3.34,3.34,0,0,1,0-2.7,2.88,2.88,0,0,1,3-1.53,8.31,8.31,0,0,1,3.26,1.55L44.34,78l1.31-2,1.54,1L45.86,79l8.76,5.56A21.67,21.67,0,0,0,55.48,80c.08-1.87-.48-3.24-1.61-4a1.4,1.4,0,0,0-2.2.37,3.08,3.08,0,0,0-.07,1.79l-2,.15c-.73-1-.64-2.14.18-3.42a2.93,2.93,0,0,1,2.33-1.47,4.08,4.08,0,0,1,2.73.68C57.9,76.07,58.54,80,56.75,85.81Z"/><polygon class="a" points="96.21 28.68 93.39 27.19 94.82 23.02 97.94 23.82 96.21 28.68"/><path class="a" d="M107.11,30.1s.88-4.24,1-5.6l-3.33-.44s-.37,2.87-.85,4.81Z"/><path class="a" d="M103.29,26.93a18.1,18.1,0,0,0,.51-4.47L99.7,21a35.17,35.17,0,0,1-.94,4.13Z"/><path class="a" d="M95.35,21.38l2.59.78a19,19,0,0,0,.82-4.26l-2.47-.53A29.14,29.14,0,0,1,95.35,21.38Z"/><path class="a" d="M108.26,22.8l-3.07-1.06a21.93,21.93,0,0,0,.2-3.71l2.63.79S108.26,21.87,108.26,22.8Z"/><path class="a" d="M100.35,18.54a21,21,0,0,0,0-3.92l3.06.74a33.33,33.33,0,0,1,0,4.16Z"/><path class="a" d="M96.54,14.91l2.22.47-.28-3.29-2.11-.33A14.5,14.5,0,0,1,96.54,14.91Z"/><path class="a" d="M107.64,15.38H105.7l-.81-3.29,2,.19A13.74,13.74,0,0,1,107.64,15.38Z"/><path class="a" d="M100.88,12.09A9.55,9.55,0,0,0,99.67,8.7c-.32-.47,2.1,0,2.1,0A6.6,6.6,0,0,1,103,12.59Z"/><path class="a" d="M103.23,5l-1.63.85L99.92,3.87,101.06,3A11.13,11.13,0,0,1,103.23,5Z"/><path class="a" d="M95.68,9.21s-.82-2.14-1.52-2.59l1.52-.39c1.18,1.6,1.41,2.34,1.37,2.53Z"/><polygon class="a" points="98.24 4.84 96.86 5.43 95.08 3.66 96.49 3.13 98.24 4.84"/><polygon class="a" points="93.94 0.24 93.37 1.47 91.56 1.04 91.69 0 93.94 0.24"/><polygon class="a" points="92.25 4.79 92.47 3.62 90.89 2.86 90.59 3.75 92.25 4.79"/><polygon class="a" points="89.04 1.17 88.84 2.1 90.39 2.52 90.39 1.47 89.04 1.17"/><polygon class="a" points="86.35 0.31 86.35 1.17 87.67 1.17 87.67 0.15 86.35 0.31"/><polygon class="a" points="84.98 1.17 86.09 1.47 86.09 2.19 84.98 1.85 84.98 1.17"/><polygon class="a" points="83.84 1.17 83.84 1.69 82.8 1.43 83.84 1.17"/><polygon class="a" points="98.76 27.57 97.38 31.02 101.92 33.84 103.16 29.44 98.76 27.57"/><polygon class="a" points="104.19 30.71 106.27 31.36 104.89 35.57 102.96 34.56 104.19 30.71"/></svg>