<svg xmlns="http://www.w3.org/2000/svg" viewBox="0 0 120 120"><defs><style>.a{fill:#e94c2d;}</style></defs><path class="a" d="M67.83,53.73v0h-6A2,2,0,0,1,61,49.77a2.1,2.1,0,0,1,.79,0h6A29.27,29.27,0,0,0,40.41,23.48h-.08V29a2,2,0,1,1-3.92,0V23.48h-.2A29.35,29.35,0,0,0,9.33,49.74v0h8.31a2,2,0,0,1,.79,3.92,2.1,2.1,0,0,1-.79,0H9.33a29.32,29.32,0,0,0,19.6,26.53v.14a1.43,1.43,0,0,1,.24-.16V63.68H65.75a.93.93,0,0,1,.13-.15h-.12A29.17,29.17,0,0,0,67.83,53.73ZM52,54.79h-.16l-15.24-.2V35.47a2,2,0,0,1,1.92-2h0a2,2,0,0,1,2,1.92V50.68H51.93A2.06,2.06,0,0,1,52,54.79Z"/><path class="a" d="M77.28,52.63A38.63,38.63,0,1,0,28.88,90c.09,0,.2,0,.29.06v-5c-.11,0-.15-.15-.24-.21v0A33.65,33.65,0,1,1,72.22,50.44a2,2,0,0,1,.47.9A1.93,1.93,0,0,1,72.23,53,34.25,34.25,0,0,1,70.5,63.53h-.11s.09.09.11.15h5.2s0-.06,0-.08.06-.07.07-.11h0A39.84,39.84,0,0,0,77.28,52.63Z"/><path class="a" d="M72.3,52.05l0,.62c0,.12,0,.23,0,.34a1.93,1.93,0,0,0,.46-1.67,2,2,0,0,0-.47-.9c0,.3.07.6.08.9Z"/><polygon class="a" points="98.86 64.4 93.24 64.54 93.33 68.26 98.96 68.26 98.86 64.4"/><polygon class="a" points="99 70.03 98.96 68.26 93.33 68.26 93.37 70.17 99 70.03"/><polygon class="a" points="104.86 70.35 108.12 70.27 108 65.25 102.97 65.37 103.04 68.26 104.86 68.26 104.86 70.35"/><polygon class="a" points="104.86 70.35 104.86 68.26 103.04 68.26 103.09 70.4 104.86 70.35"/><rect class="a" x="107.78" y="60.21" width="3.36" height="3.36" transform="translate(-1.48 2.7) rotate(-1.4)"/><rect class="a" x="109.76" y="55.96" width="2.43" height="2.43" transform="translate(-1.37 2.74) rotate(-1.4)"/><rect class="a" x="113.31" y="55.29" width="2.43" height="2.43" transform="translate(-1.35 2.82) rotate(-1.4)"/><rect class="a" x="112.6" y="52.25" width="1.81" height="1.81" transform="translate(-1.27 2.8) rotate(-1.4)"/><rect class="a" x="115.99" y="52.33" width="1.3" height="1.3" transform="translate(-1.26 2.86) rotate(-1.4)"/><rect class="a" x="114.85" y="50.57" width="0.79" height="0.79" transform="translate(-1.22 2.85) rotate(-1.41)"/><rect class="a" x="116.6" y="50.4" width="0.79" height="0.79" transform="translate(-1.21 2.89) rotate(-1.41)"/><rect class="a" x="118.22" y="49.67" width="0.79" height="0.79" transform="translate(-1.18 2.89) rotate(-1.39)"/><rect class="a" x="117.06" y="57.63" width="1.49" height="1.49" transform="translate(-1.4 2.91) rotate(-1.41)"/><rect class="a" x="117.2" y="54.54" width="1.09" height="1.09" transform="translate(-1.31 2.89) rotate(-1.4)"/><rect class="a" x="118.9" y="51.72" width="1.09" height="1.09" transform="translate(-1.24 2.93) rotate(-1.4)"/><polygon class="a" points="107.95 77.41 107.83 72.38 104.86 72.45 104.86 77.48 107.95 77.41"/><polygon class="a" points="102.92 77.53 104.86 77.48 104.86 72.45 102.8 72.5 102.92 77.53"/><polygon class="a" points="98.94 72.34 96.39 72.4 96.52 77.43 101.55 77.31 101.43 72.53 98.94 72.59 98.94 72.34"/><polygon class="a" points="98.96 68.26 103.04 68.26 103.09 70.4 103.27 70.39 103.21 68.11 98.84 68.21 98.88 70.03 99 70.03 98.96 68.26"/><rect class="a" x="98.94" y="72.31" width="2.49" height="0.25" transform="translate(-1.71 2.43) rotate(-1.38)"/><polygon class="a" points="101.42 72.28 101.43 72.53 103.32 72.48 103.27 70.39 103.09 70.4 103.04 68.26 98.96 68.26 99 70.03 98.88 70.03 98.94 72.34 101.42 72.28"/><rect class="a" x="109.89" y="68.67" width="4.54" height="4.54" transform="translate(-1.7 2.77) rotate(-1.4)"/><rect class="a" x="112.61" y="63.53" width="3.3" height="3.3" transform="translate(-1.57 2.83) rotate(-1.41)"/><rect class="a" x="113.01" y="59.35" width="2.42" height="2.42" transform="translate(-1.45 2.82) rotate(-1.41)"/><rect class="a" x="104.85" y="56.92" width="2.91" height="2.91" transform="translate(-1.4 2.62) rotate(-1.4)"/><path class="a" d="M104.86,70.35l-1.59,0,0,2.09-1.89,0,.12,4.78-5,.12-.13-5,2.55-.06L98.88,70l-5.51.14,0-1.91H90.07l.06,2.61L85,71l-.07-2.74H34.15V106h70.71V83.57l-2.38.05-.12-5,2.5-.07v-1l-1.94,0-.12-5,2.06,0ZM69.55,98.29l-2.75-2v-11H64.15V82.77h2.72V79.49c0-1.31-.36-1.7-.85-1.7a1.79,1.79,0,0,0-1.28.62l-1.25-1.87c.95-1.08,1.77-1.67,2.62-1.67a3.29,3.29,0,0,1,3.28,1.9,9,9,0,0,1,.46,3.7V83h2.42v2.33H69.78v9.83a21,21,0,0,0,4-1.61,4,4,0,0,0,2.39-3.27c0-1-.43-1.45-1.28-1.45-.26,0-.69.27-1.61,1l-1.4-1.9a3.64,3.64,0,0,1,6-.69,4.59,4.59,0,0,1,1,2.85C78.79,93.9,75.51,96.65,69.55,98.29Z"/><polygon class="a" points="88.59 63.69 84.97 63.78 85.01 65.47 88.63 65.47 88.59 63.69"/><polygon class="a" points="88.68 67.32 88.63 65.47 85.01 65.47 85.06 67.4 88.68 67.32"/><polygon class="a" points="110.03 79.45 106.41 79.54 106.45 81.22 110.07 81.22 110.03 79.45"/><polygon class="a" points="110.12 83.07 110.07 81.22 106.45 81.22 106.5 83.16 110.12 83.07"/></svg>