<svg xmlns="http://www.w3.org/2000/svg" viewBox="0 0 120 120"><defs><style>.a{fill:#e94c2d;}</style></defs><path class="a" d="M53.47,78.05l-3.35-2.13q0,14,0,28a5.39,5.39,0,0,1-5.47,5.5q-18,0-36,0A5.38,5.38,0,0,1,3.37,104q0-13.61,0-27.21V59.89h0q0-21.89,0-43.81A5.33,5.33,0,0,1,8.84,10.6H44.51a5.43,5.43,0,0,1,5.61,5.69c0,3,0,5.95,0,8.92l3.36,1.07V16.49c0-5.52-3.78-9.27-9.29-9.27H9A8.91,8.91,0,0,0,0,16.2V60H0q0,21.69,0,43.38a10.08,10.08,0,0,0,.32,2.74c1.15,4.33,4.53,6.67,9.49,6.67q17,0,34.06,0c5.86,0,9.61-3.77,9.61-9.66C53.47,94.77,53.48,86.4,53.47,78.05ZM50.12,65v5.43l3.35-2V65.31C52.36,65.23,51.24,65.14,50.12,65Z"/><path class="a" d="M26.27,96.08a4.94,4.94,0,1,0-.16,9.87,4.94,4.94,0,1,0,.16-9.87Z"/><path class="a" d="M19.92,18.77c1.89,0,3.78,0,5.68,0h5.89c.75,0,1.25-.3,1.26-1.11s-.56-1.08-1.28-1.08c-3.85,0-7.71,0-11.57,0-.77,0-1.38.27-1.37,1.13S19.14,18.77,19.92,18.77Z"/><path class="a" d="M45.61,73.07l2.54-1.48V64.81c-2.21-.26-4.38-.59-6.43-1-.85,3-1.72,7.08-1.72,7.08l-7.19-4.77L27.4,71.83,20.22,61.42l5.45-4.11L20,55.7l2.8-7.51,10.78,3.14,1-.77.41.59c2.86-7.29,7-18.53,8.43-25.73L43.89,23l2.31.84,1.94.68v-.14c0-2-.81-2.83-2.75-2.83H8c-1.87,0-2.68.8-2.68,2.66V57.54q0,16.8,0,33.62c0,1.77.86,2.66,2.59,2.66q18.78,0,37.58,0a2.34,2.34,0,0,0,2.65-2.62V74.67Z"/><path class="a" d="M29.09,62.74a.88.88,0,0,0-.8.09.83.83,0,0,0-.47.89l.54.21c.07-.25.14-.42.24-.46s.45-.11.63.17a1.25,1.25,0,0,1-.07,1.26,7.86,7.86,0,0,1-.8,1.1l-1.64-2.58.63-.4-.29-.44-.62.38-.4-.72a2.22,2.22,0,0,0-.67-.81.83.83,0,0,0-1,0,1,1,0,0,0-.34.72l.46.22a.53.53,0,0,1,.22-.32c.17-.12.38,0,.58.3l.59.93-.66.42.31.5.64-.41,1.72,2.75.87,0c1.21-1.35,1.53-2.46,1-3.35A1.19,1.19,0,0,0,29.09,62.74Z"/><path class="a" d="M88.8,77.42l-3.75,2a21.27,21.27,0,0,0,6.29,3.25l3.31-2S91.28,78.9,88.8,77.42Z"/><polygon class="a" points="74.61 83.72 69.93 85.97 74.54 88.61 79.39 86.53 74.61 83.72"/><polygon class="a" points="76.02 82.65 80.77 84.81 85.74 82.27 81.55 79.98 76.02 82.65"/><path class="a" d="M77.18,88.82a17.37,17.37,0,0,0,4.23,1.66l2.79-1.59a28,28,0,0,1-3.59-1.72Z"/><path class="a" d="M90.67,85.26a34.72,34.72,0,0,1-3.78-1.51L83.21,85.4a20.67,20.67,0,0,0,4,1.76Z"/><path class="a" d="M84.4,90.46A33.36,33.36,0,0,0,89,91.64l2.28-1.42-4-1.31Z"/><path class="a" d="M94.63,83.6a32.58,32.58,0,0,0,4.66,1.29l2.49-1.24a38.23,38.23,0,0,1-4.26-1.55Z"/><path class="a" d="M98.09,86.15c-.75-.12-3.17-.76-3.17-.76l-3.09,1.77c1.5.47,2.93.83,2.93.83Z"/><path class="a" d="M92,92.39a21.11,21.11,0,0,0,2.89-.09L96.85,91l-2.59-.28Z"/><path class="a" d="M98.2,88.77l-1.9,1.15a20,20,0,0,0,2.81.16l1.62-1A11,11,0,0,1,98.2,88.77Z"/><polygon class="a" points="114.97 83.22 115.34 82.83 115.38 82.55 114.97 82.78 114.97 83.22"/><path class="a" d="M100.59,91.27a17.36,17.36,0,0,0,1.72-.57l1.13-1.19-1.6.59Z"/><polygon class="a" points="100.52 87.43 102.8 87.77 104.28 86.58 102.07 86.19 100.52 87.43"/><path class="a" d="M107,84.83,105.86,86a21.89,21.89,0,0,0,2.39-.13l.9-1C108.74,84.91,107,84.83,107,84.83Z"/><polygon class="a" points="105.45 89.1 107.56 88.66 108.23 87.77 106.66 87.82 105.45 89.1"/><polygon class="a" points="110.58 87.45 111.71 86.47 111.97 85.77 111.07 86.43 110.58 87.45"/><polygon class="a" points="111.98 85.06 112.88 84.56 113.14 83.87 112.26 84.18 111.98 85.06"/><path class="a" d="M92.74,36.27l1.61-5.86S88.51,32,84.08,33l-2,6.41A33.8,33.8,0,0,0,92.74,36.27Z"/><polygon class="a" points="72.08 63.29 80.15 61.24 83.37 53.6 74.91 55.64 72.08 63.29"/><polygon class="a" points="78.67 43.83 75.33 52.9 83.08 50.16 85.91 41.85 78.67 43.83"/><path class="a" d="M91.11,52.61c-.88.61-6,2-6,2l-2.08,5.6a27.29,27.29,0,0,0,6.6-2.74Z"/><path class="a" d="M86.46,48.16a32.86,32.86,0,0,0,6.4-2.32l1.9-6a49.41,49.41,0,0,1-5.94,2.42Z"/><path class="a" d="M100.15,46.89l1-4.08-6,2.9-1.5,4.84A50.12,50.12,0,0,0,100.15,46.89Z"/><path class="a" d="M105.55,25.94a61.17,61.17,0,0,1-6.5,2.89l-1.63,4.83a50.87,50.87,0,0,0,6.68-3.6Z"/><path class="a" d="M102.35,38.49l1.75-5.71c-1,.69-4.41,2.6-4.41,2.6l-1.56,5.37C100.35,39.65,102.35,38.49,102.35,38.49Z"/><path class="a" d="M107.72,44.25l.84-3.55-3.22,2.5-.79,4.29A32,32,0,0,0,107.72,44.25Z"/><path class="a" d="M107.1,35.64,106.19,39a29.94,29.94,0,0,0,3.36-2.9l.71-2.93A17.55,17.55,0,0,1,107.1,35.64Z"/><polygon class="a" points="119.75 9.86 119.52 10.56 120 11.07 120 10.22 119.75 9.86"/><path class="a" d="M113.76,33.59l-.15,2.69s1.07-1.87,1.32-2.52V31.18Z"/><polygon class="a" points="111.58 26.51 108.65 28.5 108.26 31.58 111.2 29.47 111.58 26.51"/><path class="a" d="M115.25,19.28c-.45.5-2.46,2.28-2.46,2.28l0,2.59a30.55,30.55,0,0,0,2.57-2.75Z"/><polygon class="a" points="114.73 25.16 114.77 27.92 116.52 25.81 116.44 23.38 114.73 25.16"/><polygon class="a" points="119.1 18.96 119.65 20.61 119.87 18.3 119.38 17.22 119.1 18.96"/><polygon class="a" points="118.64 13.81 118 15.1 118.64 16.41 119.11 14.86 118.64 13.81"/><path class="a" d="M77.07,63.88A49,49,0,0,1,62.4,65.74l-12.73,7.4L67,84.12l18.88-9.56A52.94,52.94,0,0,1,77.07,63.88Zm-5.13,5.6a4.86,4.86,0,0,1-1.64,1.31l-1.4.77.75,1.22-.93.56L68,72.1l-5.16,3.16A12.75,12.75,0,0,0,65,76.88a2.46,2.46,0,0,0,2.49.17c.55-.34.67-.77.36-1.25-.09-.18-.4-.33-.92-.49l.44-1.06a1.64,1.64,0,0,1,1.75,1,1.73,1.73,0,0,1,.16,1.59,2.36,2.36,0,0,1-1.07,1.27c-1.76,1.1-4,.42-6.58-2l.12-1.7L67.2,71l-.79-1.29,1-.62.82,1.34,1.85-1.13c.63-.4.85-.79.63-1.14a1.07,1.07,0,0,0-.63-.45l.44-.92a2,2,0,0,1,1.42.69A1.71,1.71,0,0,1,71.94,69.48Z"/><path class="a" d="M69.2,63.57,78.12,39l2.49-.32L82.39,33c-9.17,1.77-29-4.29-36.91-7.19C43.18,37.5,34,59.11,34,59.11,43.86,64.39,69.2,63.57,69.2,63.57ZM57.75,51.34q-1.68,5-10.7,4.57L45.34,53.6l3.43-10.29-2.41-.81L47,40.65l2.49.83L50.62,38c.39-1.21.23-1.92-.44-2.14a1.79,1.79,0,0,0-1.3.07l-.42-1.64A3.23,3.23,0,0,1,51,33.67a2.84,2.84,0,0,1,2.18,2.5,8.21,8.21,0,0,1-.7,3.48l-1,2.53,2.29.77-.57,1.7L51,43.88l-3.21,9.68a21,21,0,0,0,4.52-.24c1.8-.39,3-1.24,3.39-2.51.35-1,0-1.7-.88-2a2.86,2.86,0,0,0-1.72.36l-.59-1.82c.76-1,1.87-1.14,3.29-.66a2.92,2.92,0,0,1,2,1.88A4.17,4.17,0,0,1,57.75,51.34Z"/></svg>